<svg width="25" height="24" viewBox="0 0 25 24" fill="none" xmlns="http://www.w3.org/2000/svg">
<path opacity="0.4" d="M16.99 2H8.61005C4.97005 2 2.80005 4.17 2.80005 7.81V16.18C2.80005 19.83 4.97005 22 8.61005 22H16.98C20.62 22 22.79 19.83 22.79 16.19V7.81C22.8 4.17 20.63 2 16.99 2Z" fill="#E30613"/>
<path d="M16.55 9.75H9.05005C8.64005 9.75 8.30005 9.41 8.30005 9C8.30005 8.59 8.64005 8.25 9.05005 8.25H16.55C16.96 8.25 17.3 8.59 17.3 9C17.3 9.41 16.96 9.75 16.55 9.75Z" fill="#E30613"/>
<path d="M16.55 15.75H9.05005C8.64005 15.75 8.30005 15.41 8.30005 15C8.30005 14.59 8.64005 14.25 9.05005 14.25H16.55C16.96 14.25 17.3 14.59 17.3 15C17.3 15.41 16.96 15.75 16.55 15.75Z" fill="#E30613"/>
</svg>
