<?xml version="1.0" encoding="UTF-8"?>
<svg version="1.1" xmlns="http://www.w3.org/2000/svg" width="25" height="24">
<path d="M0 0 C1.76150391 -0.02126953 1.76150391 -0.02126953 3.55859375 -0.04296875 C6.5625 0.1875 6.5625 0.1875 8.5625 2.1875 C11.0375 2.6825 11.0375 2.6825 13.5625 3.1875 C13.5625 7.1475 13.5625 11.1075 13.5625 15.1875 C12.593125 15.496875 11.62375 15.80625 10.625 16.125 C7.72184208 16.88273342 7.72184208 16.88273342 6.5625 18.1875 C4.58630553 18.31264928 2.60511827 18.3632276 0.625 18.375 C-0.45652344 18.38917969 -1.53804687 18.40335938 -2.65234375 18.41796875 C-5.4375 18.1875 -5.4375 18.1875 -7.4375 16.1875 C-7.60913731 13.62457683 -7.67014558 11.18404143 -7.625 8.625 C-7.62435547 7.92697266 -7.62371094 7.22894531 -7.62304688 6.50976562 C-7.56347096 -0.31498593 -6.61721954 0.03623888 0 0 Z " fill="#E20413" transform="translate(10.4375,2.8125)"/>
</svg>
