<svg width="25" height="24" viewBox="0 0 25 24" fill="none" xmlns="http://www.w3.org/2000/svg">
<path opacity="0.4" d="M13.8008 3.25H7.80078C4.38078 3.25 3.05078 4.58 3.05078 8V16C3.05078 18.3 4.30078 20.75 7.80078 20.75H13.8008C17.2208 20.75 18.5508 19.42 18.5508 16V8C18.5508 4.58 17.2208 3.25 13.8008 3.25Z" fill="#E30613"/>
<path d="M12.2999 11.38C13.3382 11.38 14.1799 10.5383 14.1799 9.5C14.1799 8.4617 13.3382 7.62 12.2999 7.62C11.2616 7.62 10.4199 8.4617 10.4199 9.5C10.4199 10.5383 11.2616 11.38 12.2999 11.38Z" fill="#E30613"/>
<path d="M22.4513 6.16999C22.0412 5.95999 21.1812 5.71999 20.0112 6.53999L18.5312 7.57999C18.5412 7.71999 18.5513 7.84999 18.5513 7.99999V16C18.5513 16.15 18.5312 16.28 18.5312 16.42L20.0112 17.46C20.6312 17.9 21.1712 18.04 21.6012 18.04C21.9712 18.04 22.2613 17.94 22.4513 17.84C22.8612 17.63 23.5513 17.06 23.5513 15.63V8.37999C23.5513 6.94999 22.8612 6.37999 22.4513 6.16999Z" fill="#E30613"/>
</svg>
