<svg width="25" height="24" viewBox="0 0 25 24" fill="none" xmlns="http://www.w3.org/2000/svg">
<path d="M10.4707 2.81984L3.54066 8.36983C2.76066 8.98983 2.26066 10.2999 2.43066 11.2799L3.76066 19.2398C4.00066 20.6598 5.36065 21.8098 6.80065 21.8098H18.0007C19.4307 21.8098 20.8007 20.6498 21.0407 19.2398L22.3707 11.2799C22.5307 10.2999 22.0307 8.98983 21.2607 8.36983L14.3306 2.82985C13.2606 1.96985 11.5307 1.96984 10.4707 2.81984Z" stroke="#A9A9A9" stroke-width="1.5" stroke-linecap="round" stroke-linejoin="round"/>
<path d="M12.4004 15.5C13.7811 15.5 14.9004 14.3807 14.9004 13C14.9004 11.6193 13.7811 10.5 12.4004 10.5C11.0197 10.5 9.90039 11.6193 9.90039 13C9.90039 14.3807 11.0197 15.5 12.4004 15.5Z" stroke="#A9A9A9" stroke-width="1.5" stroke-linecap="round" stroke-linejoin="round"/>
</svg>
