<svg width="25" height="24" viewBox="0 0 25 24" fill="none" xmlns="http://www.w3.org/2000/svg">
<path d="M12.6001 22.81C11.9101 22.81 11.2601 22.46 10.8001 21.85L9.3001 19.85C9.2701 19.81 9.1501 19.76 9.1001 19.75H8.6001C4.4301 19.75 1.8501 18.62 1.8501 13V8C1.8501 3.58 4.1801 1.25 8.6001 1.25H16.6001C21.0201 1.25 23.3501 3.58 23.3501 8V13C23.3501 17.42 21.0201 19.75 16.6001 19.75H16.1001C16.0201 19.75 15.9501 19.79 15.9001 19.85L14.4001 21.85C13.9401 22.46 13.2901 22.81 12.6001 22.81ZM8.6001 2.75C5.0201 2.75 3.3501 4.42 3.3501 8V13C3.3501 17.52 4.9001 18.25 8.6001 18.25H9.1001C9.6101 18.25 10.1901 18.54 10.5001 18.95L12.0001 20.95C12.3501 21.41 12.8501 21.41 13.2001 20.95L14.7001 18.95C15.0301 18.51 15.5501 18.25 16.1001 18.25H16.6001C20.1801 18.25 21.8501 16.58 21.8501 13V8C21.8501 4.42 20.1801 2.75 16.6001 2.75H8.6001Z" fill="#A9A9A9"/>
<path d="M17.6001 8.75H7.6001C7.1901 8.75 6.8501 8.41 6.8501 8C6.8501 7.59 7.1901 7.25 7.6001 7.25H17.6001C18.0101 7.25 18.3501 7.59 18.3501 8C18.3501 8.41 18.0101 8.75 17.6001 8.75Z" fill="#A9A9A9"/>
<path d="M13.6001 13.75H7.6001C7.1901 13.75 6.8501 13.41 6.8501 13C6.8501 12.59 7.1901 12.25 7.6001 12.25H13.6001C14.0101 12.25 14.3501 12.59 14.3501 13C14.3501 13.41 14.0101 13.75 13.6001 13.75Z" fill="#A9A9A9"/>
</svg>
