<svg width="94" height="98" viewBox="0 0 94 98" fill="none" xmlns="http://www.w3.org/2000/svg">
<path d="M87.3367 14.3661H66.7973V12.2153C66.7783 11.956 66.6667 11.7121 66.4828 11.5283C66.299 11.3444 66.0551 11.2328 65.7958 11.2138H56.5194V9.11224C56.4187 6.71737 55.3965 4.45405 53.6663 2.79512C51.9361 1.13619 49.6318 0.209961 47.2348 0.209961C44.8378 0.209961 42.5336 1.13619 40.8034 2.79512C39.0732 4.45405 38.051 6.71737 37.9503 9.11224V11.263H28.6739C28.4163 11.2825 28.1745 11.3947 27.9933 11.5788C27.8122 11.763 27.704 12.0067 27.6888 12.2646V14.3661H6.80464C5.13254 14.3661 3.52894 15.0303 2.34659 16.2127C1.16424 17.395 0.5 18.9987 0.5 20.6707V76.3454C0.499997 77.1726 0.663191 77.9916 0.98023 78.7556C1.29727 79.5196 1.76193 80.2135 2.34759 80.7977C2.93325 81.3818 3.62838 81.8446 4.3932 82.1597C5.15802 82.4747 5.97748 82.6358 6.80464 82.6336H39.7727V88.9383H29.3471C28.7807 88.9026 28.213 88.9834 27.6791 89.1756C27.1452 89.3678 26.6563 89.6674 26.2426 90.0558C25.8289 90.4443 25.4992 90.9134 25.2738 91.4342C25.0485 91.955 24.9322 92.5164 24.9322 93.0839C24.9322 93.6514 25.0485 94.2128 25.2738 94.7336C25.4992 95.2544 25.8289 95.7235 26.2426 96.112C26.6563 96.5005 27.1452 96.8 27.6791 96.9922C28.213 97.1845 28.7807 97.2652 29.3471 97.2295H64.6301C65.1964 97.2652 65.7641 97.1845 66.298 96.9922C66.832 96.8 67.3208 96.5005 67.7345 96.112C68.1482 95.7235 68.4779 95.2544 68.7033 94.7336C68.9287 94.2128 69.0449 93.6514 69.0449 93.0839C69.0449 92.5164 68.9287 91.955 68.7033 91.4342C68.4779 90.9134 68.1482 90.4443 67.7345 90.0558C67.3208 89.6674 66.832 89.3678 66.298 89.1756C65.7641 88.9834 65.1964 88.9026 64.6301 88.9383H54.2209V82.6336H87.1889C88.0161 82.6358 88.8355 82.4747 89.6004 82.1597C90.3652 81.8446 91.0603 81.3818 91.646 80.7977C92.2316 80.2135 92.6963 79.5196 93.0133 78.7556C93.3304 77.9916 93.4936 77.1726 93.4936 76.3454V20.72C93.5317 19.8921 93.4001 19.0652 93.1067 18.2901C92.8134 17.515 92.3646 16.8081 91.7878 16.2129C91.2111 15.6177 90.5187 15.1469 89.7532 14.8293C88.9877 14.5116 88.1653 14.354 87.3367 14.3661ZM85.4157 41.2594H74.908C74.6665 41.2905 74.4447 41.4085 74.2839 41.5913C74.1231 41.7741 74.0344 42.0092 74.0344 42.2527C74.0344 42.4961 74.1231 42.7313 74.2839 42.9141C74.4447 43.0969 74.6665 43.2149 74.908 43.246H85.4157V45.3968H74.908C74.6424 45.3968 74.3876 45.5023 74.1998 45.6901C74.012 45.8779 73.9065 46.1327 73.9065 46.3983C73.9065 46.6639 74.012 46.9187 74.1998 47.1065C74.3876 47.2943 74.6424 47.3998 74.908 47.3998H85.4157V49.5506H74.908C74.6665 49.5817 74.4447 49.6997 74.2839 49.8825C74.1231 50.0654 74.0344 50.3005 74.0344 50.544C74.0344 50.7874 74.1231 51.0225 74.2839 51.2053C74.4447 51.3882 74.6665 51.5062 74.908 51.5373H85.4157V53.7702H74.908C74.6665 53.8013 74.4447 53.9193 74.2839 54.1021C74.1231 54.2849 74.0344 54.52 74.0344 54.7635C74.0344 55.0069 74.1231 55.2421 74.2839 55.4249C74.4447 55.6077 74.6665 55.7257 74.908 55.7568H85.4157V57.9076H74.908C74.6424 57.9076 74.3876 58.0131 74.1998 58.2009C74.012 58.3888 73.9065 58.6435 73.9065 58.9091C73.9065 59.1747 74.012 59.4295 74.1998 59.6173C74.3876 59.8051 74.6424 59.9106 74.908 59.9106H85.4157V61.9793H74.908C74.6665 62.0104 74.4447 62.1284 74.2839 62.3113C74.1231 62.4941 74.0344 62.7292 74.0344 62.9726C74.0344 63.2161 74.1231 63.4512 74.2839 63.634C74.4447 63.8169 74.6665 63.9349 74.908 63.966H85.4157V68.1034H8.79127V63.966H19.2333C19.4748 63.9349 19.6967 63.8169 19.8574 63.634C20.0182 63.4512 20.1069 63.2161 20.1069 62.9726C20.1069 62.7292 20.0182 62.4941 19.8574 62.3113C19.6967 62.1284 19.4748 62.0104 19.2333 61.9793H8.79127V59.8285H19.2333C19.499 59.8285 19.7537 59.723 19.9415 59.5352C20.1294 59.3474 20.2349 59.0926 20.2349 58.827C20.2349 58.5614 20.1294 58.3067 19.9415 58.1188C19.7537 57.931 19.499 57.8255 19.2333 57.8255H8.79127V55.6747H19.2333C19.4748 55.6436 19.6967 55.5256 19.8574 55.3428C20.0182 55.16 20.1069 54.9248 20.1069 54.6814C20.1069 54.4379 20.0182 54.2028 19.8574 54.02C19.6967 53.8372 19.4748 53.7192 19.2333 53.6881H8.79127V51.5373H19.2333C19.4748 51.5062 19.6967 51.3882 19.8574 51.2053C20.0182 51.0225 20.1069 50.7874 20.1069 50.544C20.1069 50.3005 20.0182 50.0654 19.8574 49.8825C19.6967 49.6997 19.4748 49.5817 19.2333 49.5506H8.79127V47.3998H19.2333C19.499 47.3998 19.7537 47.2943 19.9415 47.1065C20.1294 46.9187 20.2349 46.6639 20.2349 46.3983C20.2349 46.1327 20.1294 45.8779 19.9415 45.6901C19.7537 45.5023 19.499 45.3968 19.2333 45.3968H8.79127V43.246H19.2333C19.4748 43.2149 19.6967 43.0969 19.8574 42.9141C20.0182 42.7313 20.1069 42.4961 20.1069 42.2527C20.1069 42.0092 20.0182 41.7741 19.8574 41.5913C19.6967 41.4085 19.4748 41.2905 19.2333 41.2594H8.79127V22.7066H27.5082V44.7401C27.5082 46.852 28.3471 48.8774 29.8405 50.3707C31.3338 51.864 33.3592 52.703 35.4711 52.703H58.6702C60.7821 52.703 62.8075 51.864 64.3008 50.3707C65.7942 48.8774 66.6331 46.852 66.6331 44.7401V22.7066H85.4157V41.2594ZM29.5933 38.2712H64.8928V44.7401C64.895 45.5247 64.7418 46.302 64.442 47.0272C64.1422 47.7523 63.7018 48.4109 63.1462 48.965C62.5906 49.5191 61.9308 49.9577 61.2048 50.2554C60.4789 50.5532 59.7011 50.7043 58.9165 50.6999H35.4711C33.902 50.6869 32.4021 50.0522 31.3002 48.935C30.1984 47.8178 29.5846 46.3092 29.5933 44.7401V38.2712ZM64.7122 36.1204H29.5933V32.9681H64.8928V36.1204H64.7122ZM39.7727 9.27641C39.8617 7.40074 40.6694 5.63136 42.0283 4.33542C43.3872 3.03948 45.1929 2.31649 47.0707 2.31649C48.9484 2.31649 50.7541 3.03948 52.113 4.33542C53.4719 5.63136 54.2796 7.40074 54.3686 9.27641V11.4272H39.7727V9.27641ZM29.5933 13.4138H37.8025V17.7319C36.9515 17.9718 36.216 18.5115 35.7319 19.2514C35.2479 19.9913 35.0479 20.8814 35.169 21.7572C35.2901 22.6331 35.724 23.4355 36.3907 24.0163C37.0573 24.5972 37.9116 24.9171 38.7958 24.9171C39.68 24.9171 40.5343 24.5972 41.2009 24.0163C41.8676 23.4355 42.3015 22.6331 42.4226 21.7572C42.5437 20.8814 42.3437 19.9913 41.8597 19.2514C41.3756 18.5115 40.6402 17.9718 39.7891 17.7319V13.4138H54.385V17.7319C53.631 17.957 52.9676 18.4149 52.4898 19.0402C52.012 19.6654 51.7444 20.4259 51.7253 21.2126C51.7208 21.8913 51.906 22.5578 52.2599 23.137C52.6138 23.7161 53.1224 24.185 53.7284 24.4907C54.3345 24.7964 55.0138 24.9268 55.6899 24.8672C56.366 24.8077 57.0121 24.5605 57.5553 24.1536C58.0986 23.7466 58.5174 23.1961 58.7646 22.5639C59.0118 21.9318 59.0776 21.2432 58.9546 20.5757C58.8315 19.9082 58.5245 19.2883 58.0682 18.7859C57.6119 18.2834 57.0243 17.9184 56.3717 17.7319V13.4138H64.5808V30.9815H29.5933V13.4138ZM38.8697 19.5543C39.1652 19.5543 39.454 19.6419 39.6997 19.8061C39.9454 19.9703 40.137 20.2036 40.25 20.4766C40.3631 20.7496 40.3927 21.05 40.335 21.3398C40.2774 21.6297 40.1351 21.8959 39.9262 22.1048C39.7172 22.3138 39.451 22.4561 39.1612 22.5137C38.8713 22.5714 38.5709 22.5418 38.2979 22.4287C38.0249 22.3156 37.7916 22.1241 37.6274 21.8784C37.4632 21.6327 37.3756 21.3439 37.3756 21.0484C37.3751 20.666 37.5211 20.2979 37.7838 20.0199C38.0465 19.742 38.4058 19.5753 38.7876 19.5543H38.8697ZM55.4358 19.5543C55.8321 19.5543 56.2121 19.7117 56.4923 19.9919C56.7725 20.2721 56.9299 20.6521 56.9299 21.0484C56.9299 21.4446 56.7725 21.8247 56.4923 22.1048C56.2121 22.385 55.8321 22.5424 55.4358 22.5424C55.0396 22.5424 54.6595 22.385 54.3793 22.1048C54.0991 21.8247 53.9417 21.4446 53.9417 21.0484C53.9417 20.6521 54.0991 20.2721 54.3793 19.9919C54.6595 19.7117 55.0396 19.5543 55.4358 19.5543ZM66.9287 93.125C66.9161 93.6958 66.6838 94.2398 66.28 94.6435C65.8763 95.0473 65.3323 95.2796 64.7614 95.2922H29.5933C29.294 95.3183 28.9924 95.2819 28.7079 95.1853C28.4234 95.0886 28.1621 94.9339 27.9406 94.7309C27.719 94.5278 27.5422 94.2809 27.4212 94.0059C27.3001 93.7309 27.2376 93.4337 27.2376 93.1332C27.2376 92.8327 27.3001 92.5354 27.4212 92.2604C27.5422 91.9854 27.719 91.7385 27.9406 91.5355C28.1621 91.3325 28.4234 91.1777 28.7079 91.0811C28.9924 90.9844 29.294 90.948 29.5933 90.9742H64.8928C65.4251 91.0427 65.9136 91.3049 66.2649 91.7107C66.6162 92.1165 66.8057 92.6375 66.7973 93.1742L66.9287 93.125ZM52.3328 88.9875H41.9071V82.6829H52.3328V88.9875ZM91.7368 76.3946C91.7156 77.5317 91.2534 78.616 90.4477 79.4187C89.642 80.2213 88.5559 80.6794 87.4188 80.6963H6.96884C5.83299 80.6753 4.74924 80.2159 3.94441 79.4142C3.13958 78.6124 2.67604 77.5304 2.6508 76.3946V20.72C2.67185 19.5814 3.13355 18.4953 3.93882 17.69C4.74409 16.8847 5.83021 16.423 6.96884 16.402H27.5082V20.5394H7.78975C7.53215 20.5588 7.29034 20.671 7.10918 20.8552C6.92802 21.0394 6.81981 21.283 6.80464 21.5409V69.2691C6.82361 69.5241 6.9335 69.7638 7.11429 69.9445C7.29508 70.1253 7.53478 70.2352 7.78975 70.2542H86.5158C86.7707 70.2352 87.0104 70.1253 87.1912 69.9445C87.372 69.7638 87.4819 69.5241 87.5009 69.2691V21.6559C87.4819 21.4009 87.372 21.1612 87.1912 20.9804C87.0104 20.7996 86.7707 20.6897 86.5158 20.6707H66.8137V16.5169H87.3531C88.5071 16.5385 89.6061 17.0144 90.4115 17.8412C91.2168 18.6681 91.6636 19.7792 91.6547 20.9334L91.7368 76.3946Z" fill="#004797"/>
</svg>
