<svg width="25" height="24" viewBox="0 0 25 24" fill="none" xmlns="http://www.w3.org/2000/svg">
<path d="M13.3308 20.4201H7.01078C3.85078 20.4201 2.80078 18.3201 2.80078 16.2101V7.79008C2.80078 4.63008 3.85078 3.58008 7.01078 3.58008H13.3308C16.4908 3.58008 17.5408 4.63008 17.5408 7.79008V16.2101C17.5408 19.3701 16.4808 20.4201 13.3308 20.4201Z" stroke="#A9A9A9" stroke-width="1.5" stroke-linecap="round" stroke-linejoin="round"/>
<path d="M20.321 17.1001L17.541 15.1501V8.84013L20.321 6.89013C21.681 5.94013 22.801 6.52013 22.801 8.19013V15.8101C22.801 17.4801 21.681 18.0601 20.321 17.1001Z" stroke="#A9A9A9" stroke-width="1.5" stroke-linecap="round" stroke-linejoin="round"/>
<path d="M12.3008 11C13.1292 11 13.8008 10.3284 13.8008 9.5C13.8008 8.67157 13.1292 8 12.3008 8C11.4724 8 10.8008 8.67157 10.8008 9.5C10.8008 10.3284 11.4724 11 12.3008 11Z" stroke="#A9A9A9" stroke-width="1.5" stroke-linecap="round" stroke-linejoin="round"/>
</svg>
