<svg width="25" height="24" viewBox="0 0 25 24" fill="none" xmlns="http://www.w3.org/2000/svg">
<path d="M9.76016 10.87C9.66016 10.86 9.54016 10.86 9.43016 10.87C7.05016 10.79 5.16016 8.84 5.16016 6.44C5.16016 3.99 7.14016 2 9.60016 2C12.0502 2 14.0402 3.99 14.0402 6.44C14.0302 8.84 12.1402 10.79 9.76016 10.87Z" stroke="#A9A9A9" stroke-width="1.5" stroke-linecap="round" stroke-linejoin="round"/>
<path d="M17.0089 4C18.9489 4 20.5089 5.57 20.5089 7.5C20.5089 9.39 19.0089 10.93 17.1389 11C17.0589 10.99 16.9689 10.99 16.8789 11" stroke="#A9A9A9" stroke-width="1.5" stroke-linecap="round" stroke-linejoin="round"/>
<path d="M4.76031 14.56C2.34031 16.18 2.34031 18.82 4.76031 20.43C7.51031 22.27 12.0203 22.27 14.7703 20.43C17.1903 18.81 17.1903 16.17 14.7703 14.56C12.0303 12.73 7.52031 12.73 4.76031 14.56Z" stroke="#A9A9A9" stroke-width="1.5" stroke-linecap="round" stroke-linejoin="round"/>
<path d="M18.9395 20C19.6595 19.85 20.3395 19.56 20.8995 19.13C22.4595 17.96 22.4595 16.03 20.8995 14.86C20.3495 14.44 19.6795 14.16 18.9695 14" stroke="#A9A9A9" stroke-width="1.5" stroke-linecap="round" stroke-linejoin="round"/>
</svg>
