<svg width="25" height="24" viewBox="0 0 25 24" fill="none" xmlns="http://www.w3.org/2000/svg">
<path d="M13.1202 2.25984L19.6302 5.76984C20.3902 6.17984 20.3902 7.34984 19.6302 7.75984L13.1202 11.2698C12.5402 11.5798 11.8602 11.5798 11.2802 11.2698L4.7702 7.75984C4.0102 7.34984 4.0102 6.17984 4.7702 5.76984L11.2802 2.25984C11.8602 1.94984 12.5402 1.94984 13.1202 2.25984Z" stroke="#A9A9A9" stroke-width="1.5" stroke-linecap="round" stroke-linejoin="round"/>
<path d="M3.8102 10.1302L9.8602 13.1602C10.6102 13.5402 11.0902 14.3102 11.0902 15.1502V20.8702C11.0902 21.7002 10.2202 22.2302 9.4802 21.8602L3.4302 18.8302C2.6802 18.4502 2.2002 17.6802 2.2002 16.8402V11.1202C2.2002 10.2902 3.0702 9.76017 3.8102 10.1302Z" stroke="#A9A9A9" stroke-width="1.5" stroke-linecap="round" stroke-linejoin="round"/>
<path d="M20.5905 10.1302L14.5405 13.1602C13.7905 13.5402 13.3105 14.3102 13.3105 15.1502V20.8702C13.3105 21.7002 14.1805 22.2302 14.9205 21.8602L20.9705 18.8302C21.7205 18.4502 22.2005 17.6802 22.2005 16.8402V11.1202C22.2005 10.2902 21.3305 9.76017 20.5905 10.1302Z" stroke="#A9A9A9" stroke-width="1.5" stroke-linecap="round" stroke-linejoin="round"/>
</svg>
