<svg width="89" height="92" viewBox="0 0 89 92" fill="none" xmlns="http://www.w3.org/2000/svg">
<path d="M74.565 78.6726L69.4826 21.4665C69.4638 21.2143 69.3551 20.9773 69.1763 20.7985C68.9975 20.6196 68.7605 20.511 68.5083 20.4922H57.1418V12.2921C57.1418 9.03201 55.8467 5.90547 53.5415 3.60025C51.2363 1.29504 48.1098 0 44.8497 0C41.5897 0 38.4631 1.29504 36.1579 3.60025C33.8527 5.90547 32.5576 9.03201 32.5576 12.2921V20.4922H21.1911C21.0606 20.4854 20.9301 20.5057 20.808 20.5521C20.6858 20.5984 20.5746 20.6697 20.4814 20.7613C20.3882 20.8529 20.3152 20.9629 20.2668 21.0844C20.2185 21.2058 20.1959 21.3359 20.2006 21.4665L15.2318 78.6726L10.1656 89.8117C10.0907 89.9726 10.0581 90.15 10.0712 90.327C10.0842 90.5039 10.1423 90.6746 10.2399 90.8227C10.3376 90.9709 10.4716 91.0916 10.6291 91.1732C10.7867 91.2549 10.9625 91.2949 11.1398 91.2894H78.8356C79.013 91.3031 79.1906 91.2653 79.347 91.1807C79.5035 91.0961 79.6322 90.9682 79.7179 90.8123C79.8035 90.6564 79.8424 90.4791 79.83 90.3017C79.8175 90.1242 79.7541 89.9541 79.6475 89.8117L74.565 78.6726ZM34.7498 12.3083C34.6947 10.9187 34.9207 9.53234 35.4144 8.23228C35.9082 6.93221 36.6594 5.74525 37.623 4.7426C38.5867 3.73995 39.743 2.94225 41.0225 2.39735C42.3019 1.85246 43.6783 1.57158 45.0689 1.57158C46.4596 1.57158 47.836 1.85246 49.1154 2.39735C50.3949 2.94225 51.5511 3.73995 52.5148 4.7426C53.4784 5.74525 54.2296 6.93221 54.7234 8.23228C55.2171 9.53234 55.4432 10.9187 55.3881 12.3083V20.5084H34.7498V12.3083ZM22.279 22.6356H32.6064V28.871C31.7327 29.1001 30.9573 29.6075 30.3978 30.3165C29.8382 31.0255 29.5247 31.8975 29.5049 32.8005C29.4965 33.5698 29.7052 34.3259 30.107 34.9821C30.5087 35.6382 31.0873 36.1677 31.7764 36.51C32.4654 36.8522 33.237 36.9933 34.0025 36.9169C34.7681 36.8406 35.4966 36.55 36.1045 36.0785C36.7124 35.607 37.1752 34.9736 37.4395 34.2511C37.7038 33.5286 37.7591 32.7462 37.599 31.9937C37.4389 31.2412 37.0699 30.549 36.5343 29.9967C35.9988 29.4443 35.3183 29.0542 34.5711 28.871V22.6356H55.0633V28.871C54.1879 29.0995 53.4106 29.6063 52.8482 30.315C52.2859 31.0238 51.9691 31.8961 51.9457 32.8005C51.9341 33.5737 52.141 34.3345 52.5426 34.9953C52.9442 35.6561 53.5241 36.1902 54.2156 36.5361C54.9072 36.882 55.6824 37.0257 56.452 36.9506C57.2216 36.8756 57.9545 36.5849 58.5662 36.1119C59.1779 35.6389 59.6438 35.0029 59.9102 34.277C60.1766 33.551 60.2326 32.7646 60.0719 32.0082C59.9113 31.2518 59.5404 30.5562 59.002 30.0012C58.4635 29.4462 57.7793 29.0544 57.0281 28.871V22.6356H67.3879L72.2593 78.0393H17.3752L22.279 22.6356ZM33.6455 30.7546C34.0662 30.7546 34.4776 30.8793 34.8274 31.113C35.1772 31.3468 35.4499 31.679 35.6109 32.0677C35.7719 32.4564 35.8139 32.8841 35.7319 33.2967C35.6498 33.7094 35.4472 34.0884 35.1497 34.3858C34.8522 34.6833 34.4732 34.8859 34.0606 34.968C33.648 35.0501 33.2202 35.008 32.8316 34.847C32.4429 34.686 32.1107 34.4133 31.8769 34.0635C31.6432 33.7137 31.5184 33.3024 31.5184 32.8817C31.5464 32.3426 31.7754 31.8336 32.1601 31.4549C32.5448 31.0762 33.0574 30.8553 33.5969 30.8357L33.6455 30.7546ZM56.265 30.7546C56.6857 30.7546 57.097 30.8793 57.4468 31.113C57.7966 31.3468 58.0692 31.679 58.2302 32.0677C58.3912 32.4564 58.4333 32.8841 58.3512 33.2967C58.2692 33.7094 58.0666 34.0884 57.7691 34.3858C57.4716 34.6833 57.0926 34.8859 56.68 34.968C56.2673 35.0501 55.8396 35.008 55.4509 34.847C55.0622 34.686 54.7301 34.4133 54.4963 34.0635C54.2626 33.7137 54.1378 33.3024 54.1378 32.8817C54.1659 32.3426 54.3948 31.8336 54.7795 31.4549C55.1642 31.0762 55.6768 30.8553 56.2162 30.8357L56.265 30.7546ZM12.8286 89.0973L17.0992 79.9229H73.1361L77.4067 89.0973H12.8286Z" fill="#004797"/>
<path d="M16.2226 9.19044C16.2226 7.9572 15.8569 6.75166 15.1718 5.72626C14.4866 4.70086 13.5128 3.90166 12.3735 3.42972C11.2341 2.95778 9.98043 2.8343 8.77089 3.07489C7.56135 3.31548 6.45025 3.90933 5.57822 4.78136C4.70619 5.65339 4.11236 6.76442 3.87177 7.97396C3.63118 9.1835 3.75464 10.4372 4.22658 11.5766C4.69852 12.716 5.49772 13.6898 6.52311 14.3749C7.54851 15.0601 8.75411 15.4258 9.98734 15.4258C10.8068 15.4279 11.6186 15.2681 12.376 14.9555C13.1335 14.6429 13.8217 14.1837 14.4011 13.6043C14.9806 13.0248 15.4398 12.3366 15.7524 11.5791C16.065 10.8216 16.2248 10.0099 16.2226 9.19044ZM10.1659 13.2986C9.35273 13.3018 8.55683 13.0636 7.87911 12.6142C7.20139 12.1647 6.67232 11.5242 6.35889 10.7738C6.04546 10.0235 5.96178 9.19694 6.11846 8.39896C6.27513 7.60098 6.66508 6.86746 7.23897 6.2913C7.81286 5.71513 8.5449 5.32224 9.34225 5.16241C10.1396 5.00257 10.9665 5.08297 11.7181 5.39343C12.4697 5.70388 13.1122 6.23043 13.5644 6.90636C14.0165 7.5823 14.2579 8.37722 14.2579 9.19044C14.2454 10.2733 13.8106 11.3085 13.0464 12.0758C12.2822 12.843 11.2487 13.2818 10.1659 13.2986Z" fill="#004797"/>
<path d="M88.0107 43.1279C88.0107 42.1227 87.7125 41.14 87.1541 40.3042C86.5956 39.4684 85.8019 38.817 84.8732 38.4323C83.9445 38.0476 82.9225 37.947 81.9366 38.1431C80.9507 38.3392 80.0451 38.8232 79.3343 39.534C78.6235 40.2448 78.1395 41.1504 77.9433 42.1363C77.7472 43.1222 77.848 44.1441 78.2326 45.0728C78.6173 46.0015 79.2687 46.7953 80.1045 47.3538C80.9403 47.9122 81.923 48.2103 82.9282 48.2103C84.2748 48.2061 85.5651 47.6692 86.5173 46.717C87.4695 45.7648 88.0064 44.4745 88.0107 43.1279ZM82.7658 46.0669C82.3571 46.0691 81.9521 45.9904 81.574 45.8355C81.1958 45.6806 80.852 45.4525 80.5623 45.1643C80.2726 44.8761 80.0426 44.5335 79.8858 44.1561C79.7289 43.7788 79.6481 43.3741 79.6481 42.9655C79.6345 42.5524 79.7059 42.1409 79.8578 41.7566C80.0097 41.3722 80.2389 41.023 80.5312 40.7308C80.8234 40.4385 81.1724 40.2094 81.5568 40.0575C81.9412 39.9056 82.3527 39.8343 82.7658 39.8478C83.5926 39.8478 84.3856 40.1763 84.9703 40.761C85.555 41.3456 85.8835 42.1386 85.8835 42.9655C85.8972 43.3778 85.8257 43.7886 85.6737 44.1722C85.5216 44.5557 85.2923 44.9038 84.9998 45.1948C84.7072 45.4858 84.3579 45.7134 83.9736 45.8635C83.5892 46.0135 83.178 46.0828 82.7658 46.0669Z" fill="#004797"/>
<path d="M84.4053 17.5532C84.6976 17.5532 84.9834 17.6399 85.2264 17.8023C85.4693 17.9646 85.6587 18.1954 85.7706 18.4654C85.8824 18.7354 85.9116 19.0325 85.8546 19.3191C85.7976 19.6058 85.6569 19.8691 85.4502 20.0757C85.2436 20.2824 84.9803 20.4231 84.6936 20.4801C84.407 20.5372 84.1099 20.5079 83.8399 20.396C83.5699 20.2842 83.3392 20.0948 83.1768 19.8518C83.0144 19.6088 82.9277 19.3231 82.9277 19.0309C82.9277 18.639 83.0834 18.2631 83.3605 17.986C83.6377 17.7089 84.0134 17.5532 84.4053 17.5532Z" fill="#004797"/>
<path d="M69.9855 2.14316C70.2778 2.14316 70.5635 2.22983 70.8065 2.39219C71.0495 2.55456 71.2389 2.78534 71.3507 3.05535C71.4626 3.32535 71.4918 3.62246 71.4348 3.90909C71.3778 4.19573 71.2371 4.45901 71.0304 4.66566C70.8238 4.87231 70.5604 5.01306 70.2738 5.07007C69.9872 5.12709 69.6901 5.09782 69.4201 4.98598C69.1501 4.87414 68.9193 4.68475 68.757 4.44175C68.5946 4.19875 68.5079 3.91306 68.5079 3.62081C68.5057 3.42616 68.5424 3.23303 68.6159 3.05277C68.6894 2.87251 68.7982 2.70875 68.9359 2.57111C69.0735 2.43346 69.2373 2.3247 69.4175 2.25121C69.5978 2.17772 69.7909 2.14098 69.9855 2.14316Z" fill="#004797"/>
<path d="M20.8176 0.0162045C21.1099 0.0162045 21.3956 0.102873 21.6386 0.265239C21.8815 0.427605 22.0709 0.658392 22.1828 0.928397C22.2946 1.1984 22.3239 1.4955 22.2669 1.78214C22.2099 2.06878 22.0691 2.33205 21.8624 2.53871C21.6558 2.74536 21.3926 2.8861 21.1059 2.94312C20.8193 3.00013 20.5221 2.97086 20.2521 2.85902C19.9821 2.74719 19.7514 2.55779 19.589 2.3148C19.4266 2.0718 19.3399 1.78611 19.3399 1.49386C19.3378 1.29921 19.3746 1.10608 19.4481 0.92582C19.5216 0.745561 19.6302 0.581802 19.7679 0.444154C19.9055 0.306506 20.0693 0.197746 20.2496 0.124257C20.4298 0.0507687 20.623 0.0140294 20.8176 0.0162045Z" fill="#004797"/>
<path d="M1.4777 27.7179C1.76995 27.7179 2.05571 27.8045 2.29871 27.9669C2.54171 28.1293 2.73107 28.3601 2.84291 28.6301C2.95475 28.9001 2.98397 29.1972 2.92696 29.4838C2.86994 29.7704 2.72925 30.0337 2.52259 30.2404C2.31594 30.447 2.05264 30.5878 1.766 30.6448C1.47937 30.7018 1.18229 30.6725 0.912283 30.5607C0.642278 30.4488 0.411516 30.2595 0.24915 30.0165C0.0867842 29.7735 9.12849e-05 29.4878 9.12849e-05 29.1955C-0.00208379 29.0009 0.0346307 28.8077 0.108119 28.6275C0.181608 28.4472 0.290393 28.2835 0.428041 28.1458C0.565688 28.0082 0.729448 27.8994 0.909707 27.8259C1.08997 27.7524 1.28304 27.7157 1.4777 27.7179Z" fill="#004797"/>
<path d="M8.52457 63.6036C8.81682 63.6036 9.10249 63.6903 9.34548 63.8526C9.58848 64.015 9.77795 64.2458 9.88979 64.5158C10.0016 64.7858 10.0308 65.0829 9.97383 65.3695C9.91682 65.6562 9.77612 65.9195 9.56947 66.1261C9.36282 66.3328 9.09951 66.4735 8.81288 66.5305C8.52624 66.5875 8.22906 66.5583 7.95906 66.4464C7.68905 66.3346 7.45829 66.1452 7.29593 65.9022C7.13356 65.6592 7.04697 65.3735 7.04697 65.0813C7.04479 64.8866 7.08151 64.6935 7.15499 64.5132C7.22848 64.333 7.33727 64.1692 7.47492 64.0316C7.61256 63.8939 7.77632 63.7851 7.95658 63.7117C8.13684 63.6382 8.32992 63.6014 8.52457 63.6036Z" fill="#004797"/>
<path d="M87.5227 56.3941C87.815 56.3941 88.1006 56.4808 88.3436 56.6432C88.5866 56.8055 88.776 57.0363 88.8878 57.3063C88.9997 57.5763 89.029 57.8734 88.972 58.1601C88.915 58.4467 88.7742 58.71 88.5675 58.9166C88.3609 59.1233 88.0976 59.264 87.8109 59.321C87.5243 59.3781 87.2272 59.3488 86.9572 59.237C86.6872 59.1251 86.4564 58.9357 86.2941 58.6927C86.1317 58.4497 86.045 58.164 86.045 57.8718C86.0428 57.6771 86.0796 57.484 86.153 57.3037C86.2265 57.1235 86.3353 56.9597 86.473 56.8221C86.6106 56.6844 86.7744 56.5757 86.9546 56.5022C87.1349 56.4287 87.3281 56.392 87.5227 56.3941Z" fill="#004797"/>
<path d="M80.3781 72.7945C80.671 72.7945 80.9573 72.8816 81.2007 73.0447C81.444 73.2078 81.6334 73.4396 81.7448 73.7105C81.8561 73.9815 81.8844 74.2794 81.8261 74.5665C81.7677 74.8535 81.6253 75.1168 81.417 75.3228C81.2088 75.5288 80.944 75.6682 80.6563 75.7234C80.3686 75.7785 80.071 75.7469 79.8013 75.6326C79.5316 75.5183 79.3019 75.3264 79.1415 75.0812C78.9811 74.8361 78.8973 74.5488 78.9005 74.2559C78.9005 74.0626 78.9387 73.8713 79.0132 73.6929C79.0876 73.5145 79.1967 73.3527 79.3342 73.2168C79.4716 73.0809 79.6347 72.9735 79.8139 72.9011C79.993 72.8286 80.1848 72.7924 80.3781 72.7945Z" fill="#004797"/>
<path d="M40.9692 53.4551C41.5858 53.4551 42.1886 53.2722 42.7013 52.9297C43.214 52.5871 43.6136 52.1002 43.8496 51.5305C44.0856 50.9608 44.1473 50.334 44.027 49.7292C43.9067 49.1244 43.6098 48.5689 43.1738 48.1329C42.7378 47.6969 42.1822 47.3999 41.5774 47.2796C40.9727 47.1593 40.3458 47.2211 39.7761 47.4571C39.2065 47.693 38.7196 48.0926 38.377 48.6053C38.0345 49.118 37.8516 49.7208 37.8516 50.3374C37.8836 51.154 38.2224 51.9285 38.8002 52.5064C39.3781 53.0843 40.1526 53.423 40.9692 53.4551ZM40.9692 49.1845C41.1972 49.1845 41.4202 49.2521 41.6097 49.3788C41.7993 49.5055 41.9471 49.6855 42.0343 49.8962C42.1216 50.1069 42.1444 50.3387 42.0999 50.5623C42.0555 50.786 41.9457 50.9914 41.7845 51.1526C41.6232 51.3139 41.4178 51.4237 41.1942 51.4681C40.9705 51.5126 40.7387 51.4898 40.5281 51.4025C40.3174 51.3153 40.1373 51.1675 40.0106 50.9779C39.884 50.7883 39.8164 50.5654 39.8164 50.3374C39.995 49.6717 40.4821 49.1845 40.9692 49.1845Z" fill="#004797"/>
<path d="M47.9029 61.3145C47.2862 61.3145 46.6834 61.4973 46.1707 61.8399C45.658 62.1824 45.2584 62.6694 45.0225 63.2391C44.7865 63.8087 44.7248 64.4356 44.8451 65.0404C44.9654 65.6451 45.2623 66.2006 45.6983 66.6367C46.1343 67.0727 46.6899 67.3696 47.2946 67.4899C47.8994 67.6102 48.5262 67.5485 49.0959 67.3125C49.6656 67.0765 50.1526 66.6769 50.4951 66.1642C50.8377 65.6515 51.0205 65.0487 51.0205 64.4321C50.9884 63.6155 50.6497 62.841 50.0718 62.2631C49.494 61.6853 48.7195 61.3465 47.9029 61.3145ZM47.9029 65.5688C47.6741 65.5687 47.4507 65.5007 47.2607 65.3733C47.0708 65.2459 46.923 65.0649 46.8362 64.8533C46.7495 64.6416 46.7276 64.409 46.7734 64.1849C46.8192 63.9609 46.9307 63.7555 47.0935 63.5949C47.2564 63.4343 47.4634 63.3258 47.6881 63.2832C47.9128 63.2406 48.145 63.2657 48.3554 63.3555C48.5657 63.4452 48.7446 63.5955 48.8694 63.7873C48.9941 63.979 49.059 64.2034 49.0558 64.4321C49.0329 64.7287 48.9036 65.0071 48.6918 65.2159C48.4799 65.4248 48.1997 65.5501 47.9029 65.5688Z" fill="#004797"/>
<path d="M47.5286 49.6713L36.7141 60.502C36.1571 61.1025 35.8477 61.8913 35.8477 62.7103C35.8477 63.5294 36.1571 64.3182 36.7141 64.9187C36.9927 65.2282 37.3333 65.4756 37.7138 65.645C38.0942 65.8144 38.5059 65.902 38.9224 65.902C39.3388 65.902 39.7507 65.8144 40.1311 65.645C40.5116 65.4756 40.8522 65.2282 41.1308 64.9187L51.9452 54.1043C52.2641 53.8209 52.5217 53.4754 52.7023 53.0889C52.8829 52.7025 52.9828 52.2832 52.9958 51.8568C53.0087 51.4305 52.9344 51.0059 52.7775 50.6092C52.6206 50.2126 52.3845 49.8521 52.0834 49.5499C51.7823 49.2477 51.4227 49.0102 51.0266 48.8518C50.6305 48.6935 50.2062 48.6177 49.7798 48.629C49.3534 48.6404 48.9337 48.7387 48.5466 48.9179C48.1595 49.0972 47.8131 49.3535 47.5286 49.6713ZM50.6462 52.789L39.783 63.6034C39.7006 63.7207 39.5912 63.8164 39.464 63.8825C39.3368 63.9485 39.1956 63.983 39.0523 63.983C38.909 63.983 38.7678 63.9485 38.6406 63.8825C38.5134 63.8164 38.404 63.7207 38.3216 63.6034C38.2043 63.5192 38.1087 63.4083 38.0428 63.2798C37.9769 63.1514 37.9424 63.009 37.9424 62.8646C37.9424 62.7202 37.9769 62.5778 38.0428 62.4494C38.1087 62.3209 38.2043 62.21 38.3216 62.1258L49.1361 51.3113C49.2224 51.197 49.3339 51.1043 49.4622 51.0404C49.5904 50.9765 49.7317 50.9433 49.8749 50.9433C50.0182 50.9433 50.1594 50.9765 50.2876 51.0404C50.4158 51.1043 50.5274 51.197 50.6137 51.3113C50.7779 51.5211 50.8698 51.7784 50.8756 52.0448C50.8815 52.3111 50.801 52.5722 50.6462 52.789Z" fill="#004797"/>
<path d="M44.8984 40.9844C41.6547 40.9844 38.4839 41.9462 35.7868 43.7483C33.0898 45.5504 30.9877 48.1118 29.7464 51.1086C28.5051 54.1053 28.1804 57.4028 28.8132 60.5842C29.446 63.7655 31.008 66.6878 33.3016 68.9814C35.5952 71.275 38.5174 72.837 41.6988 73.4698C44.8801 74.1026 48.1776 73.7778 51.1744 72.5365C54.1712 71.2952 56.7326 69.1932 58.5347 66.4962C60.3368 63.7992 61.2986 60.6283 61.2986 57.3847C61.2857 53.039 59.5537 48.875 56.4808 45.8021C53.408 42.7292 49.244 40.9972 44.8984 40.9844ZM44.8984 71.8364C42.0472 71.8332 39.2609 70.9848 36.8918 69.3984C34.5227 67.812 32.6771 65.5589 31.5882 62.9239C30.4994 60.2888 30.2161 57.3901 30.7744 54.5941C31.3326 51.7981 32.7071 49.2304 34.7243 47.2155C36.7415 45.2005 39.3109 43.8288 42.1075 43.2738C44.9041 42.7187 47.8025 43.0052 50.4363 44.097C53.0702 45.1889 55.3211 47.037 56.9048 49.4079C58.4885 51.7788 59.3338 54.566 59.3338 57.4171C59.3166 61.2359 57.7887 64.8926 55.0838 67.5884C52.379 70.2841 48.7172 71.7997 44.8984 71.8039V71.8364Z" fill="#004797"/>
</svg>
