<svg width="25" height="24" viewBox="0 0 25 24" fill="none" xmlns="http://www.w3.org/2000/svg">
<path d="M19.5309 5.67979L13.2609 2.29979C12.6009 1.93979 11.8009 1.93979 11.1409 2.29979L4.87086 5.67979C4.41086 5.92979 4.13086 6.40979 4.13086 6.95979C4.13086 7.49979 4.41086 7.98979 4.87086 8.23979L11.1409 11.6198C11.4709 11.7998 11.8409 11.8898 12.2009 11.8898C12.5609 11.8898 12.9309 11.7998 13.2609 11.6198L19.5309 8.23979C19.9909 7.98979 20.2709 7.50979 20.2709 6.95979C20.2709 6.40979 19.9909 5.92979 19.5309 5.67979Z" fill="#004797"/>
<path opacity="0.4" d="M10.1112 12.79L4.27117 9.87C3.82117 9.65 3.30117 9.67 2.88117 9.93C2.45117 10.2 2.20117 10.65 2.20117 11.15V16.66C2.20117 17.61 2.73117 18.47 3.58117 18.9L9.41117 21.82C9.61117 21.92 9.83117 21.97 10.0512 21.97C10.3112 21.97 10.5712 21.9 10.8012 21.76C11.2312 21.5 11.4812 21.04 11.4812 20.54V15.03C11.4912 14.07 10.9612 13.21 10.1112 12.79Z" fill="#004797"/>
<path opacity="0.4" d="M21.5219 9.93014C21.0919 9.67014 20.5719 9.64014 20.1319 9.87014L14.3019 12.7901C13.4519 13.2201 12.9219 14.0701 12.9219 15.0301V20.5401C12.9219 21.0401 13.1719 21.5001 13.6019 21.7601C13.8319 21.9001 14.0919 21.9701 14.3519 21.9701C14.5719 21.9701 14.7919 21.9201 14.9919 21.8201L20.8219 18.9001C21.6719 18.4701 22.2019 17.6201 22.2019 16.6601V11.1501C22.2019 10.6501 21.9519 10.2001 21.5219 9.93014Z" fill="#004797"/>
</svg>
