<svg width="41" height="43" viewBox="0 0 41 43" fill="none" xmlns="http://www.w3.org/2000/svg">
<path d="M20.0379 6.79053C18.2331 6.79053 16.469 7.32569 14.9684 8.32833C13.4679 9.33098 12.2983 10.7561 11.6077 12.4234C10.917 14.0907 10.7363 15.9254 11.0884 17.6955C11.4405 19.4655 12.3096 21.0914 13.5857 22.3675C14.8618 23.6436 16.4877 24.5127 18.2577 24.8648C20.0277 25.2168 21.8625 25.0361 23.5298 24.3455C25.1971 23.6549 26.6222 22.4853 27.6249 20.9848C28.6275 19.4842 29.1627 17.72 29.1627 15.9153C29.1627 13.4953 28.2013 11.1743 26.4901 9.46311C24.7788 7.75189 22.4579 6.79053 20.0379 6.79053ZM20.0379 24.1676C18.4054 24.169 16.8092 23.6863 15.4512 22.7804C14.0931 21.8745 13.0343 20.5861 12.4086 19.0784C11.7829 17.5706 11.6184 15.9111 11.936 14.3098C12.2536 12.7086 13.039 11.2375 14.1928 10.0826C15.3466 8.9278 16.817 8.14112 18.418 7.82212C20.019 7.50311 21.6786 7.66611 23.1869 8.29049C24.6953 8.91487 25.9845 9.97259 26.8916 11.3298C27.7987 12.6871 28.2829 14.2829 28.2829 15.9153C28.2839 16.9987 28.0713 18.0716 27.6574 19.0728C27.2434 20.0739 26.6363 20.9837 25.8706 21.7501C25.1048 22.5165 24.1956 23.1245 23.1948 23.5393C22.194 23.9541 21.1212 24.1676 20.0379 24.1676Z" fill="#004797"/>
<path d="M28.8721 25.993L29.3156 25.1932L32.522 23.3682C32.5883 23.3317 32.6435 23.278 32.6819 23.2127C32.7203 23.1475 32.7404 23.0731 32.7401 22.9974V19.362L34.5651 16.1484C34.6041 16.0823 34.6247 16.007 34.6247 15.9302C34.6247 15.8535 34.6041 15.7782 34.5651 15.7121L32.7401 12.4985V8.86308C32.7415 8.78814 32.7217 8.71431 32.6832 8.65003C32.6446 8.58575 32.5888 8.53361 32.522 8.49955L29.3156 6.67459L27.4834 3.43184C27.4493 3.36506 27.3972 3.30921 27.3329 3.27064C27.2686 3.23207 27.1948 3.21235 27.1198 3.21372H23.4845L20.2853 1.38876C20.2181 1.35311 20.1433 1.33447 20.0672 1.33447C19.9911 1.33447 19.9163 1.35311 19.8491 1.38876L16.6354 3.21372H13C12.9251 3.21235 12.8512 3.23207 12.787 3.27064C12.7227 3.30921 12.6705 3.36506 12.6365 3.43184L10.8115 6.64551L7.59786 8.47046C7.53108 8.50452 7.47525 8.55667 7.43668 8.62095C7.39812 8.68523 7.37838 8.75905 7.37975 8.834V12.4694L5.55478 15.683C5.51913 15.7502 5.50051 15.8251 5.50051 15.9012C5.50051 15.9772 5.51913 16.0521 5.55478 16.1193L7.37975 19.333V22.9683C7.37948 23.044 7.39959 23.1184 7.43797 23.1836C7.47635 23.2489 7.53157 23.3026 7.59786 23.3391L10.8115 25.1641L11.2478 25.9639L3.6862 38.5495C3.65034 38.6308 3.63184 38.7188 3.63184 38.8076C3.63184 38.8965 3.65034 38.9844 3.6862 39.0657C3.74486 39.1406 3.82568 39.1949 3.91709 39.221C4.0085 39.2471 4.10583 39.2437 4.19516 39.2112L9.74274 37.5316L11.8658 41.7632C11.9085 41.8389 11.9728 41.9 12.0506 41.9389C12.1283 41.9778 12.2159 41.9925 12.3021 41.9813C12.4051 41.9786 12.5041 41.9413 12.5833 41.8753C12.6624 41.8093 12.7171 41.7186 12.7383 41.6178L15.9229 28.734H16.5773L19.7909 30.559C19.8581 30.5946 19.933 30.6133 20.009 30.6133C20.0851 30.6133 20.16 30.5946 20.2271 30.559L23.4408 28.734H24.1025L27.3088 41.6541C27.3387 41.739 27.3878 41.8159 27.452 41.879C27.5163 41.942 27.5942 41.9894 27.6796 42.0177C27.7658 42.0289 27.8534 42.0141 27.9311 41.9753C28.0089 41.9364 28.0732 41.8752 28.1159 41.7995L30.2317 37.568L35.7793 39.2475C35.869 39.2759 35.9651 39.2772 36.0556 39.2513C36.1461 39.2255 36.227 39.1736 36.2882 39.1021C36.3242 39.0694 36.3529 39.0295 36.3725 38.9851C36.3922 38.9406 36.4023 38.8926 36.4023 38.844C36.4023 38.7954 36.3922 38.7473 36.3725 38.7029C36.3529 38.6584 36.3242 38.6186 36.2882 38.5859L28.8721 25.993ZM12.1494 40.1564L10.4044 36.7318C10.3626 36.6363 10.2858 36.5604 10.1897 36.5198C10.0937 36.4792 9.98577 36.4771 9.88816 36.5137L5.07493 37.9679L11.7131 26.9454L12.5929 28.4723C12.6252 28.541 12.6767 28.5988 12.7413 28.6388C12.8058 28.6788 12.8805 28.6993 12.9564 28.6977H14.9995L12.1494 40.1564ZM23.3172 27.7452C23.2777 27.7404 23.2377 27.7445 23.2 27.7571C23.1623 27.7696 23.1278 27.7904 23.0991 27.8179L20.0309 29.5702L16.9626 27.8179C16.9339 27.7904 16.8994 27.7696 16.8617 27.7571C16.824 27.7445 16.7839 27.7404 16.7445 27.7452H13.1673L11.415 24.6769C11.3423 24.6042 11.3423 24.5315 11.2696 24.5315L8.20134 22.7793V19.2821C8.2061 19.2426 8.20202 19.2026 8.18945 19.1648C8.17688 19.1271 8.15614 19.0927 8.12865 19.0639L6.37638 15.9957L8.12865 12.9347C8.15591 12.9043 8.17644 12.8686 8.18896 12.8297C8.20149 12.7909 8.20571 12.7499 8.20134 12.7093V9.19754L11.2696 7.44529C11.3423 7.37258 11.415 7.37258 11.415 7.29987L13.1673 4.23889H16.6499C16.6894 4.24364 16.7294 4.23959 16.7671 4.22702C16.8049 4.21444 16.8393 4.19367 16.8681 4.16619L19.9363 2.40667L23.0046 4.16619C23.0333 4.19367 23.0678 4.21444 23.1055 4.22702C23.1432 4.23959 23.1832 4.24364 23.2227 4.23889H26.7272L28.4795 7.29987C28.5522 7.37258 28.5521 7.44529 28.6248 7.44529L31.6931 9.19754V12.7384C31.6887 12.779 31.693 12.82 31.7055 12.8588C31.718 12.8977 31.7385 12.9334 31.7658 12.9638L33.5181 16.0248L31.7658 19.093C31.7383 19.1217 31.7176 19.1562 31.705 19.1939C31.6924 19.2316 31.6884 19.2717 31.6931 19.3111V22.8156L28.6248 24.5679C28.5521 24.6406 28.4795 24.6406 28.4795 24.7133L26.7272 27.7816L23.3172 27.7452ZM30.1808 36.4701C30.1333 36.4491 30.0819 36.438 30.03 36.4377C29.978 36.4374 29.9266 36.4478 29.8788 36.4683C29.831 36.4888 29.788 36.5189 29.7524 36.5567C29.7168 36.5945 29.6894 36.6393 29.6718 36.6882L27.9196 40.12L25.0113 28.5886H27.0544C27.1299 28.5885 27.2039 28.5673 27.2681 28.5275C27.3323 28.4877 27.3842 28.4308 27.4179 28.3632L28.2977 26.8364L34.9431 37.8588L30.1808 36.4701Z" fill="#004797"/>
<path d="M25.8841 12.3388C25.7185 12.1664 25.5198 12.0292 25.2999 11.9355C25.08 11.8418 24.8435 11.7935 24.6044 11.7935C24.3654 11.7935 24.1288 11.8418 23.9089 11.9355C23.689 12.0292 23.4903 12.1664 23.3248 12.3388L18.5043 17.1593L16.8247 15.647C16.6607 15.4624 16.4607 15.3133 16.2369 15.209C16.0131 15.1046 15.7703 15.0471 15.5235 15.04C15.2767 15.0329 15.031 15.0764 14.8016 15.1678C14.5722 15.2591 14.3639 15.3965 14.1896 15.5713C14.0152 15.7462 13.8785 15.9548 13.7878 16.1845C13.697 16.4142 13.6542 16.6599 13.662 16.9068C13.6698 17.1536 13.728 17.3962 13.833 17.6196C13.938 17.8431 14.0877 18.0428 14.2727 18.2063L18.1407 22.0743C18.2351 22.1451 18.35 22.1834 18.4679 22.1834C18.5859 22.1834 18.7007 22.1451 18.7951 22.0743L25.8841 14.9926C26.0602 14.8194 26.2 14.6129 26.2955 14.385C26.3909 14.1572 26.4401 13.9127 26.4401 13.6657C26.4401 13.4187 26.3909 13.1742 26.2955 12.9463C26.2 12.7185 26.0602 12.512 25.8841 12.3388ZM25.2224 14.3092L18.4316 21.1L14.8544 17.5228C14.7659 17.4369 14.6953 17.3342 14.6469 17.2208C14.5984 17.1073 14.573 16.9854 14.5721 16.862C14.5712 16.7386 14.5949 16.6163 14.6417 16.5022C14.6884 16.3881 14.7575 16.2844 14.8447 16.1971C14.9319 16.1099 15.0356 16.0409 15.1498 15.9941C15.2639 15.9473 15.3862 15.9237 15.5096 15.9246C15.6329 15.9255 15.7549 15.9509 15.8683 15.9993C15.9818 16.0478 16.0845 16.1183 16.1704 16.2068L18.1407 18.1845C18.2351 18.2552 18.35 18.2935 18.4679 18.2935C18.5859 18.2935 18.7007 18.2552 18.7951 18.1845L23.9792 13.0004C24.0646 12.9122 24.1668 12.8421 24.2799 12.7943C24.3929 12.7464 24.5144 12.7217 24.6372 12.7217C24.7599 12.7217 24.8814 12.7464 24.9945 12.7943C25.1075 12.8421 25.2098 12.9122 25.2952 13.0004C25.4434 13.1904 25.5178 13.4278 25.5044 13.6684C25.491 13.9091 25.3908 14.1367 25.2224 14.3092Z" fill="#004797"/>
<path d="M39.6765 5.46748C39.6765 4.85813 39.4344 4.27374 39.0035 3.84286C38.5727 3.41199 37.9883 3.16992 37.3789 3.16992C36.7696 3.16992 36.1852 3.41199 35.7543 3.84286C35.3234 4.27374 35.0814 4.85813 35.0814 5.46748C35.0765 5.76611 35.1316 6.06269 35.2434 6.33965C35.3552 6.61661 35.5215 6.8683 35.7323 7.07984C35.9432 7.29137 36.1943 7.45843 36.4709 7.57114C36.7475 7.68384 37.0439 7.73988 37.3426 7.73595C37.9499 7.73436 38.5327 7.49687 38.9682 7.07361C39.4037 6.65036 39.6576 6.07445 39.6765 5.46748ZM37.3426 6.78348C36.9743 6.78348 36.621 6.63717 36.3606 6.37674C36.1002 6.1163 35.9539 5.76308 35.9539 5.39477C35.9498 5.21164 35.9831 5.02961 36.0516 4.85972C36.12 4.68982 36.2223 4.5356 36.3521 4.40642C36.482 4.27724 36.6367 4.17579 36.807 4.10821C36.9773 4.04064 37.1595 4.00836 37.3426 4.01333C37.7103 4.01524 38.0624 4.16217 38.3224 4.42219C38.5825 4.68221 38.7294 5.03432 38.7313 5.40204C38.7384 5.58633 38.7074 5.7701 38.6402 5.94183C38.5729 6.11355 38.4709 6.26952 38.3405 6.39992C38.21 6.53033 38.0541 6.63237 37.8823 6.69963C37.7106 6.76688 37.5269 6.79791 37.3426 6.79075V6.78348Z" fill="#004797"/>
<path d="M5.87515 27.3819C5.87659 26.8322 5.71492 26.2945 5.41061 25.8368C5.1063 25.3791 4.67304 25.022 4.16566 24.8107C3.65828 24.5993 3.09961 24.5433 2.56036 24.6497C2.02112 24.756 1.52555 25.0199 1.13639 25.4081C0.747232 25.7962 0.481971 26.2911 0.374213 26.8301C0.266455 27.369 0.32104 27.9278 0.531042 28.4358C0.741043 28.9437 1.09703 29.3779 1.55393 29.6834C2.01083 29.9889 2.54809 30.152 3.09772 30.152C3.8296 30.1408 4.52847 29.8456 5.04672 29.3287C5.56497 28.8118 5.86203 28.1137 5.87515 27.3819ZM3.17046 29.2068C2.80983 29.2054 2.45768 29.0971 2.15853 28.8957C1.85937 28.6943 1.6266 28.4088 1.48959 28.0752C1.35257 27.7416 1.31748 27.3749 1.38872 27.0214C1.45995 26.6679 1.63431 26.3434 1.88982 26.0889C2.14534 25.8344 2.47055 25.6613 2.82436 25.5915C3.17817 25.5216 3.54474 25.5582 3.87778 25.6965C4.21083 25.8349 4.4954 26.0688 4.69561 26.3687C4.89582 26.6687 5.00265 27.0212 5.00265 27.3819C4.99329 27.8642 4.79702 28.324 4.45522 28.6645C4.11342 29.0049 3.65282 29.1994 3.17046 29.2068Z" fill="#004797"/>
<path d="M38.5132 11.3931C38.6423 11.3945 38.7681 11.4341 38.8748 11.5069C38.9814 11.5797 39.0642 11.6824 39.1126 11.8021C39.161 11.9217 39.1729 12.0531 39.1468 12.1795C39.1208 12.306 39.0579 12.4219 38.9661 12.5127C38.8743 12.6035 38.7577 12.6651 38.631 12.6897C38.5042 12.7144 38.373 12.701 38.2539 12.6513C38.1347 12.6016 38.033 12.5177 37.9614 12.4103C37.8898 12.3028 37.8516 12.1766 37.8516 12.0475C37.8516 11.9609 37.8687 11.8752 37.9021 11.7954C37.9354 11.7155 37.9843 11.643 38.0458 11.5822C38.1073 11.5213 38.1804 11.4733 38.2606 11.4408C38.3408 11.4084 38.4267 11.3921 38.5132 11.3931Z" fill="#004797"/>
<path d="M30.2608 3.95371e-05C30.3923 -0.0013974 30.5212 0.0363629 30.6312 0.108508C30.7411 0.180654 30.827 0.283912 30.878 0.405102C30.929 0.526293 30.9426 0.659923 30.9173 0.788942C30.892 0.917961 30.8289 1.03651 30.7359 1.12948C30.643 1.22245 30.5244 1.28561 30.3954 1.31091C30.2664 1.33621 30.1327 1.32249 30.0116 1.27152C29.8904 1.22054 29.7871 1.13461 29.7149 1.0247C29.6428 0.914788 29.605 0.785869 29.6065 0.654402C29.6065 0.480853 29.6754 0.314416 29.7981 0.191699C29.9209 0.0689811 30.0873 3.95371e-05 30.2608 3.95371e-05Z" fill="#004797"/>
<path d="M7.04545 1.83207C7.17631 1.83207 7.30426 1.87088 7.41307 1.94358C7.52187 2.01628 7.60666 2.11961 7.65674 2.24051C7.70682 2.36141 7.7199 2.49444 7.69437 2.62279C7.66884 2.75113 7.60585 2.86903 7.51332 2.96156C7.42078 3.05409 7.30289 3.1171 7.17454 3.14263C7.0462 3.16816 6.91318 3.15506 6.79228 3.10498C6.67138 3.05491 6.56805 2.9701 6.49535 2.86129C6.42265 2.75249 6.38383 2.62457 6.38383 2.49371C6.38286 2.40655 6.3993 2.32008 6.4322 2.23936C6.46511 2.15865 6.51382 2.08533 6.57545 2.02369C6.63708 1.96206 6.71041 1.91336 6.79112 1.88045C6.87184 1.84755 6.95829 1.8311 7.04545 1.83207Z" fill="#004797"/>
<path d="M0.654425 12.3384C0.785584 12.337 0.914195 12.3746 1.02395 12.4464C1.13371 12.5182 1.21967 12.621 1.27087 12.7418C1.32206 12.8625 1.33617 12.9958 1.31147 13.1246C1.28677 13.2534 1.22434 13.372 1.1321 13.4653C1.03986 13.5585 0.921998 13.6223 0.793458 13.6484C0.664919 13.6745 0.53154 13.6619 0.410218 13.612C0.288895 13.5621 0.185121 13.4773 0.112093 13.3684C0.0390643 13.2594 4.83242e-05 13.1312 4.04042e-05 13.0001C-0.000921239 12.9135 0.0152916 12.8276 0.0477458 12.7474C0.0802 12.6672 0.128272 12.5942 0.189131 12.5326C0.249991 12.4711 0.32245 12.4223 0.402319 12.3889C0.482188 12.3556 0.567877 12.3384 0.654425 12.3384Z" fill="#004797"/>
<path d="M4.48642 20.9542C4.84781 20.9542 5.14076 20.6613 5.14076 20.2999C5.14076 19.9385 4.84781 19.6455 4.48642 19.6455C4.12502 19.6455 3.83203 19.9385 3.83203 20.2999C3.83203 20.6613 4.12502 20.9542 4.48642 20.9542Z" fill="#004797"/>
<path d="M1.57084 34.2452C1.69994 34.2466 1.82573 34.2862 1.93238 34.359C2.03903 34.4317 2.12178 34.5344 2.1702 34.6541C2.21861 34.7738 2.23052 34.9051 2.20446 35.0316C2.17839 35.158 2.11551 35.274 2.02371 35.3647C1.93191 35.4555 1.81531 35.5171 1.68857 35.5418C1.56184 35.5665 1.43065 35.5531 1.3115 35.5034C1.19236 35.4536 1.0906 35.3697 1.01901 35.2623C0.947427 35.1549 0.909188 35.0286 0.90918 34.8995C0.909174 34.813 0.926342 34.7273 0.959681 34.6474C0.99302 34.5676 1.04188 34.4951 1.10342 34.4342C1.16495 34.3734 1.23797 34.3253 1.3182 34.2929C1.39844 34.2604 1.4843 34.2442 1.57084 34.2452Z" fill="#004797"/>
<path d="M21.1362 36.5066C21.2988 36.5237 21.4493 36.6004 21.5586 36.7219C21.668 36.8434 21.7286 37.0011 21.7286 37.1646C21.7286 37.3281 21.668 37.4857 21.5586 37.6072C21.4493 37.7288 21.2988 37.8055 21.1362 37.8226C21.0439 37.8323 20.9507 37.8225 20.8625 37.7938C20.7743 37.7652 20.6931 37.7183 20.6242 37.6563C20.5553 37.5942 20.5002 37.5184 20.4625 37.4337C20.4248 37.349 20.4053 37.2573 20.4053 37.1646C20.4053 37.0718 20.4248 36.9801 20.4625 36.8954C20.5002 36.8107 20.5553 36.7349 20.6242 36.6728C20.6931 36.6108 20.7743 36.5639 20.8625 36.5353C20.9507 36.5066 21.0439 36.4969 21.1362 36.5066Z" fill="#004797"/>
<path d="M35.2999 23.7319C35.4293 23.7319 35.5558 23.7703 35.6634 23.8422C35.771 23.9141 35.8549 24.0163 35.9044 24.1359C35.954 24.2555 35.9669 24.387 35.9417 24.514C35.9164 24.6409 35.8541 24.7575 35.7626 24.849C35.6711 24.9405 35.5545 25.0028 35.4275 25.0281C35.3006 25.0533 35.169 25.0404 35.0495 24.9909C34.9299 24.9413 34.8277 24.8575 34.7558 24.7498C34.6839 24.6422 34.6455 24.5157 34.6455 24.3863C34.6455 24.3004 34.6624 24.2153 34.6953 24.1359C34.7282 24.0565 34.7764 23.9844 34.8372 23.9236C34.8979 23.8628 34.9701 23.8146 35.0495 23.7817C35.1289 23.7489 35.214 23.7319 35.2999 23.7319Z" fill="#004797"/>
<path d="M40.3385 35.1177C40.4693 35.1177 40.5972 35.1565 40.706 35.2292C40.8148 35.3019 40.8996 35.4053 40.9497 35.5262C40.9998 35.6471 41.0129 35.7801 40.9874 35.9084C40.9619 36.0368 40.8988 36.1547 40.8063 36.2472C40.7138 36.3397 40.5959 36.4027 40.4675 36.4283C40.3392 36.4538 40.2061 36.4407 40.0852 36.3906C39.9643 36.3406 39.861 36.2557 39.7883 36.1469C39.7156 36.0381 39.6768 35.9102 39.6768 35.7794C39.6758 35.6922 39.6923 35.6057 39.7252 35.525C39.7581 35.4443 39.8068 35.371 39.8684 35.3093C39.9301 35.2477 40.0034 35.199 40.0841 35.1661C40.1648 35.1332 40.2513 35.1167 40.3385 35.1177Z" fill="#004797"/>
</svg>
