<svg width="25" height="24" viewBox="0 0 25 24" fill="none" xmlns="http://www.w3.org/2000/svg">
<path d="M13.3308 20.42H7.01078C3.85078 20.42 2.80078 18.32 2.80078 16.21V7.78996C2.80078 4.62996 3.85078 3.57996 7.01078 3.57996H13.3308C16.4908 3.57996 17.5408 4.62996 17.5408 7.78996V16.21C17.5408 19.37 16.4808 20.42 13.3308 20.42Z" stroke="#A9A9A9" stroke-width="1.5" stroke-linecap="round" stroke-linejoin="round"/>
<path d="M20.321 17.1L17.541 15.15V8.84001L20.321 6.89001C21.681 5.94001 22.801 6.52001 22.801 8.19001V15.81C22.801 17.48 21.681 18.06 20.321 17.1Z" stroke="#A9A9A9" stroke-width="1.5" stroke-linecap="round" stroke-linejoin="round"/>
<path d="M12.3008 11C13.1292 11 13.8008 10.3284 13.8008 9.5C13.8008 8.67157 13.1292 8 12.3008 8C11.4724 8 10.8008 8.67157 10.8008 9.5C10.8008 10.3284 11.4724 11 12.3008 11Z" stroke="#A9A9A9" stroke-width="1.5" stroke-linecap="round" stroke-linejoin="round"/>
</svg>
