<svg width="38" height="37" viewBox="0 0 38 37" fill="none" xmlns="http://www.w3.org/2000/svg">
<path d="M18.9997 35.0728C18.0284 35.0728 17.1188 34.7029 16.4405 34.0092L14.0972 31.6658C13.9122 31.4808 13.4188 31.2804 13.1722 31.2804H9.84217C7.838 31.2804 6.21924 29.6615 6.21924 27.6573V24.3274C6.21924 24.0808 6.01883 23.5875 5.83383 23.4025L3.49051 21.0591C2.81218 20.3808 2.42676 19.4712 2.42676 18.4999C2.42676 17.5287 2.79676 16.619 3.49051 15.9407L5.83383 13.5973C6.01883 13.4123 6.21924 12.919 6.21924 12.6724V9.34249C6.21924 7.33833 7.838 5.71942 9.84217 5.71942H13.1722C13.4188 5.71942 13.9122 5.51901 14.0972 5.33401L16.4405 2.99064C17.7972 1.63398 20.2022 1.63398 21.5588 2.99064L23.9022 5.33401C24.0872 5.51901 24.5805 5.71942 24.8272 5.71942H28.1572C30.1613 5.71942 31.7801 7.33833 31.7801 9.34249V12.6724C31.7801 12.919 31.9805 13.4123 32.1655 13.5973L34.5088 15.9407C35.1872 16.619 35.5726 17.5287 35.5726 18.4999C35.5726 19.4712 35.2026 20.3808 34.5088 21.0591L32.1655 23.4025C31.9805 23.5875 31.7801 24.0808 31.7801 24.3274V27.6573C31.7801 29.6615 30.1613 31.2804 28.1572 31.2804H24.8272C24.5805 31.2804 24.0872 31.4808 23.9022 31.6658L21.5588 34.0092C20.8805 34.7029 19.9709 35.0728 18.9997 35.0728ZM7.46799 21.7682C8.08466 22.3849 8.53174 23.4641 8.53174 24.3274V27.6573C8.53174 28.3819 9.11759 28.9679 9.84217 28.9679H13.1722C14.0355 28.9679 15.1147 29.4149 15.7313 30.0315L18.0747 32.3749C18.568 32.8682 19.4314 32.8682 19.9247 32.3749L22.268 30.0315C22.8847 29.4149 23.9638 28.9679 24.8272 28.9679H28.1572C28.8818 28.9679 29.4676 28.3819 29.4676 27.6573V24.3274C29.4676 23.4641 29.9147 22.3849 30.5314 21.7682L32.8747 19.4249C33.1213 19.1782 33.2601 18.8545 33.2601 18.4999C33.2601 18.1453 33.1213 17.8216 32.8747 17.5749L30.5314 15.2316C29.9147 14.6149 29.4676 13.5357 29.4676 12.6724V9.34249C29.4676 8.61791 28.8818 8.03193 28.1572 8.03193H24.8272C23.9638 8.03193 22.8847 7.58493 22.268 6.96827L19.9247 4.6249C19.4314 4.13157 18.568 4.13157 18.0747 4.6249L15.7313 6.96827C15.1147 7.58493 14.0355 8.03193 13.1722 8.03193H9.84217C9.11759 8.03193 8.53174 8.61791 8.53174 9.34249V12.6724C8.53174 13.5357 8.08466 14.6149 7.46799 15.2316L5.12467 17.5749C4.87801 17.8216 4.73926 18.1453 4.73926 18.4999C4.73926 18.8545 4.87801 19.1782 5.12467 19.4249L7.46799 21.7682Z" fill="#F9B406"/>
<path d="M23.6255 24.6668C22.7621 24.6668 22.0684 23.9731 22.0684 23.1252C22.0684 22.2772 22.7621 21.5835 23.61 21.5835C24.4579 21.5835 25.1517 22.2772 25.1517 23.1252C25.1517 23.9731 24.4734 24.6668 23.6255 24.6668Z" fill="#F9B406"/>
<path d="M14.3901 15.4168C13.5268 15.4168 12.833 14.7231 12.833 13.8752C12.833 13.0272 13.5268 12.3335 14.3747 12.3335C15.2226 12.3335 15.9163 13.0272 15.9163 13.8752C15.9163 14.7231 15.238 15.4168 14.3901 15.4168Z" fill="#F9B406"/>
<path d="M14.3751 24.2813C14.0821 24.2813 13.7892 24.1735 13.558 23.9422C13.1109 23.4951 13.1109 22.7551 13.558 22.308L22.808 13.058C23.2551 12.6109 23.995 12.6109 24.4421 13.058C24.8892 13.5051 24.8892 14.2451 24.4421 14.6922L15.1921 23.9422C14.9609 24.1735 14.668 24.2813 14.3751 24.2813Z" fill="#F9B406"/>
</svg>
